<?xml version="1.0" encoding="UTF-8"?>
<!DOCTYPE svg PUBLIC "-//W3C//DTD SVG 1.1//EN" "http://www.w3.org/Graphics/SVG/1.1/DTD/svg11.dtd">
<svg xmlns="http://www.w3.org/2000/svg" version="1.1" width="1000px" height="800px" style="shape-rendering:geometricPrecision; text-rendering:geometricPrecision; image-rendering:optimizeQuality; fill-rule:evenodd; clip-rule:evenodd" xmlns:xlink="http://www.w3.org/1999/xlink">
<g><path style="opacity:1" fill="#252020" d="M 516.5,349.5 C 515.565,352.113 515.398,354.779 516,357.5C 517.802,356.211 518.969,354.544 519.5,352.5C 526.114,346.855 533.114,341.688 540.5,337C 562.47,326.471 582.803,328.971 601.5,344.5C 581.241,344.481 562.241,349.315 544.5,359C 539.546,362.285 534.88,365.952 530.5,370C 548.514,367.43 565.514,370.43 581.5,379C 595.91,389.987 603.243,404.487 603.5,422.5C 591.445,408.637 576.445,399.637 558.5,395.5C 551.75,393.556 544.75,393.056 537.5,394C 539.078,395.094 540.745,395.928 542.5,396.5C 544.228,398.226 546.228,399.559 548.5,400.5C 550.808,402.471 553.142,404.471 555.5,406.5C 559.315,410.647 562.315,415.314 564.5,420.5C 565.707,424.896 567.207,429.23 569,433.5C 570.953,441.84 570.953,450.173 569,458.5C 568.282,459.451 567.449,459.617 566.5,459C 565.601,457.348 564.601,455.848 563.5,454.5C 562.167,452.167 560.833,449.833 559.5,447.5C 552.684,431.683 541.684,419.683 526.5,411.5C 526.167,412.167 525.833,412.833 525.5,413.5C 532.866,438.001 528.533,460.001 512.5,479.5C 510.857,479.52 509.524,478.853 508.5,477.5C 508.12,479.021 507.954,480.687 508,482.5C 506.989,483.337 505.822,483.67 504.5,483.5C 504.5,484.5 504.5,485.5 504.5,486.5C 503.325,486.719 502.325,486.386 501.5,485.5C 503.874,482.972 504.874,479.972 504.5,476.5C 505.968,472.294 506.968,467.961 507.5,463.5C 511.882,447.314 511.215,431.314 505.5,415.5C 503.012,413.612 500.012,412.945 496.5,413.5C 496.007,415.806 495.674,418.139 495.5,420.5C 493.008,429.282 491.008,438.282 489.5,447.5C 477.591,495.44 462.424,542.44 444,588.5C 442.878,591.872 444.045,593.872 447.5,594.5C 449.094,595.983 450.76,597.483 452.5,599C 472.211,600.51 491.877,602.344 511.5,604.5C 521.924,606.509 532.591,607.509 543.5,607.5C 567.347,609.273 591.014,612.439 614.5,617C 617.903,617.578 621.07,618.745 624,620.5C 624.63,622.903 623.797,624.737 621.5,626C 618.326,627.725 614.993,629.058 611.5,630C 595.229,633.323 578.895,636.323 562.5,639C 555.663,639.943 549.497,642.443 544,646.5C 543.342,648.108 543.842,649.275 545.5,650C 558.9,651.183 571.567,654.85 583.5,661C 587.491,662.621 589.324,665.454 589,669.5C 582.351,673.293 575.184,675.793 567.5,677C 516.618,684.503 465.452,688.003 414,687.5C 352.134,687.865 290.634,683.365 229.5,674C 221.492,672.749 213.826,670.415 206.5,667C 205.269,665.817 205.269,664.651 206.5,663.5C 220.042,656.528 234.375,651.862 249.5,649.5C 250.408,648.21 250.241,646.877 249,645.5C 243.32,641.828 237.153,639.328 230.5,638C 214.699,636.067 199.033,633.4 183.5,630C 181.051,629.275 178.717,628.275 176.5,627C 174.671,625.887 173.837,624.387 174,622.5C 175.731,620.383 177.898,618.883 180.5,618C 185.457,616.511 190.457,615.178 195.5,614C 214.921,610.49 234.254,607.324 253.5,604.5C 259.5,604.167 265.5,603.833 271.5,603.5C 287.524,602.861 303.524,601.861 319.5,600.5C 319.5,599.5 319.5,598.5 319.5,597.5C 327.514,590.814 336.847,587.147 347.5,586.5C 324.15,542.113 307.15,495.447 296.5,446.5C 295.578,442.888 294.911,439.221 294.5,435.5C 292.015,422.564 290.015,409.564 288.5,396.5C 288.599,393.763 288.265,391.096 287.5,388.5C 287.281,374.323 286.614,360.323 285.5,346.5C 285.121,304.579 289.788,263.245 299.5,222.5C 294.282,221.445 290.782,218.445 289,213.5C 241.248,256.316 212.248,309.649 202,373.5C 193.761,328.599 200.761,286.266 223,246.5C 236.455,225.378 253.622,207.878 274.5,194C 218.908,207.951 172.908,236.951 136.5,281C 135.668,281.688 135.002,281.521 134.5,280.5C 151.308,235.191 181.974,203.024 226.5,184C 237.954,179.404 249.62,175.404 261.5,172C 223.508,160.999 185.508,160.832 147.5,171.5C 146.167,170.833 146.167,170.167 147.5,169.5C 193.435,140.053 241.102,137.053 290.5,160.5C 290.833,160.333 291.167,160.167 291.5,160C 275.528,146.022 256.861,138.022 235.5,136C 224.189,134.986 212.855,134.32 201.5,134C 227.727,123.155 254.393,121.822 281.5,130C 291.469,133.981 300.469,139.481 308.5,146.5C 325.423,131.578 345.257,124.245 368,124.5C 384.155,124.731 399.655,127.898 414.5,134C 388.182,132.709 363.182,137.709 339.5,149C 334.47,152.184 329.804,155.851 325.5,160C 337.105,155.243 349.105,151.243 361.5,148C 398.363,140.383 432.696,146.55 464.5,166.5C 465.386,167.325 465.719,168.325 465.5,169.5C 428.62,160.953 391.954,161.787 355.5,172C 391.716,180.849 422.883,198.349 449,224.5C 463.813,240.444 474.813,258.777 482,279.5C 501.8,287.292 513.467,301.626 517,322.5C 517.748,331.535 517.581,340.535 516.5,349.5 Z M 498.5,335.5 C 481.236,325.371 462.903,317.704 443.5,312.5C 434.205,310.459 424.872,308.792 415.5,307.5C 407.451,258.996 383.117,221.163 342.5,194C 395.922,207.622 440.755,235.122 477,276.5C 477.688,277.332 477.521,277.998 476.5,278.5C 461.04,273.435 460.04,274.935 473.5,283C 488.665,297.166 496.998,314.666 498.5,335.5 Z M 395.5,307.5 C 369.133,308.009 344.133,314.009 320.5,325.5C 348.173,326.424 375.839,327.424 403.5,328.5C 403.611,329.117 403.944,329.617 404.5,330C 396.373,333.908 396.706,335.741 405.5,335.5C 376.707,337.875 347.707,338.875 318.5,338.5C 313.93,339.441 309.263,339.774 304.5,339.5C 304.737,338.209 304.404,337.209 303.5,336.5C 301.314,298.232 303.481,260.232 310,222.5C 316.171,227.724 321.838,227.057 327,220.5C 327.192,218.423 327.692,216.423 328.5,214.5C 357.468,240.788 379.801,271.788 395.5,307.5 Z M 469.5,361.5 C 472.218,363.161 473.884,365.161 474.5,367.5C 467.325,365.304 459.992,363.971 452.5,363.5C 451.5,363.5 450.5,363.5 449.5,363.5C 455.947,362.064 462.614,361.397 469.5,361.5 Z M 311.5,394.5 C 311.567,393.041 311.234,391.708 310.5,390.5C 320.784,390.162 331.117,390.829 341.5,392.5C 331.941,393.435 322.441,394.435 313,395.5C 312.617,394.944 312.117,394.611 311.5,394.5 Z M 321.5,435.5 C 357.02,436.506 392.353,438.172 427.5,440.5C 406.187,441.891 384.853,442.891 363.5,443.5C 350.172,444.889 336.839,445.222 323.5,444.5C 322.99,441.461 322.323,438.461 321.5,435.5 Z"/></g>
<g><path style="opacity:1" fill="#f49023" d="M 415.5,307.5 C 424.872,308.792 434.205,310.459 443.5,312.5C 445.675,314.417 448.342,315.75 451.5,316.5C 442.833,317.167 434.167,317.833 425.5,318.5C 423.149,320.229 420.482,320.896 417.5,320.5C 417.665,317.482 417.498,314.482 417,311.5C 416.722,310.584 416.222,309.918 415.5,309.5C 415.5,308.833 415.5,308.167 415.5,307.5 Z"/></g>
<g><path style="opacity:1" fill="#f49426" d="M 395.5,307.5 C 398.999,314.168 401.666,321.168 403.5,328.5C 375.839,327.424 348.173,326.424 320.5,325.5C 344.133,314.009 369.133,308.009 395.5,307.5 Z"/></g>
<g><path style="opacity:0.502" fill="#e2973c" d="M 405.5,335.5 C 405.833,335.5 406.167,335.5 406.5,335.5C 407.971,339.718 408.971,344.051 409.5,348.5C 408.25,348.423 407.417,347.756 407,346.5C 406.774,343.905 406.274,341.405 405.5,339C 376.334,339.324 347.334,339.157 318.5,338.5C 347.707,338.875 376.707,337.875 405.5,335.5 Z"/></g>
<g><path style="opacity:1" fill="#ea922c" d="M 415.5,309.5 C 416.222,309.918 416.722,310.584 417,311.5C 417.498,314.482 417.665,317.482 417.5,320.5C 420.482,320.896 423.149,320.229 425.5,318.5C 434.167,317.833 442.833,317.167 451.5,316.5C 448.342,315.75 445.675,314.417 443.5,312.5C 462.903,317.704 481.236,325.371 498.5,335.5C 498.666,342.508 498.5,349.508 498,356.5C 487.78,339.219 473.28,327.052 454.5,320C 442.41,317.412 430.577,318.245 419,322.5C 418.228,322.355 417.561,322.022 417,321.5C 416.499,317.49 415.999,313.49 415.5,309.5 Z"/></g>
<g><path style="opacity:1" fill="#39200b" d="M 406.5,335.5 C 407.931,335.881 408.764,336.881 409,338.5C 410.68,346.248 412.68,353.915 415,361.5C 415.945,353.363 416.778,345.363 417.5,337.5C 417.499,347.514 417.166,357.514 416.5,367.5C 418.099,367.768 419.432,367.434 420.5,366.5C 421.791,366.737 422.791,366.404 423.5,365.5C 424.5,365.5 425.5,365.5 426.5,365.5C 434.021,363.692 441.688,363.025 449.5,363.5C 450.5,363.5 451.5,363.5 452.5,363.5C 439.272,364.051 426.272,366.384 413.5,370.5C 412.796,362.929 411.462,355.596 409.5,348.5C 408.971,344.051 407.971,339.718 406.5,335.5 Z"/></g>
<g><path style="opacity:1" fill="#f69320" d="M 303.5,336.5 C 304.404,337.209 304.737,338.209 304.5,339.5C 309.263,339.774 313.93,339.441 318.5,338.5C 347.334,339.157 376.334,339.324 405.5,339C 406.274,341.405 406.774,343.905 407,346.5C 407.417,347.756 408.25,348.423 409.5,348.5C 411.462,355.596 412.796,362.929 413.5,370.5C 400.721,375.944 390.721,384.611 383.5,396.5C 378.489,403.855 374.489,411.855 371.5,420.5C 371.667,421.167 371.833,421.833 372,422.5C 375.709,419.285 379.542,416.285 383.5,413.5C 394.091,407.569 404.757,402.235 415.5,397.5C 420.564,395.548 425.897,394.215 431.5,393.5C 439.822,392.752 448.155,392.085 456.5,391.5C 459.5,391.833 462.5,392.167 465.5,392.5C 464.388,393.265 463.721,394.265 463.5,395.5C 450.434,404.401 439.934,415.735 432,429.5C 430.57,432.353 429.737,435.353 429.5,438.5C 428.833,439.167 428.167,439.833 427.5,440.5C 392.353,438.172 357.02,436.506 321.5,435.5C 317.385,422.041 314.052,408.375 311.5,394.5C 312.117,394.611 312.617,394.944 313,395.5C 322.441,394.435 331.941,393.435 341.5,392.5C 331.117,390.829 320.784,390.162 310.5,390.5C 310.5,390.167 310.5,389.833 310.5,389.5C 309.618,381.963 308.285,374.63 306.5,367.5C 305.582,357.156 304.582,346.822 303.5,336.5 Z"/></g>
<g><path style="opacity:1" fill="#f59221" d="M 447.5,346.5 C 448.892,349.381 451.226,351.214 454.5,352C 453.167,352.667 451.833,353.333 450.5,354C 455.11,353.968 458.444,355.968 460.5,360C 447.228,361.886 433.894,363.053 420.5,363.5C 420.5,364.5 420.5,365.5 420.5,366.5C 419.432,367.434 418.099,367.768 416.5,367.5C 417.166,357.514 417.499,347.514 417.5,337.5C 417.791,336.351 418.624,335.684 420,335.5C 429.84,337.719 439.006,341.386 447.5,346.5 Z"/></g>
<g><path style="opacity:1" fill="#cf9049" d="M 516.5,349.5 C 517.833,350.167 518.833,351.167 519.5,352.5C 518.969,354.544 517.802,356.211 516,357.5C 515.398,354.779 515.565,352.113 516.5,349.5 Z"/></g>
<g><path style="opacity:1" fill="#e49335" d="M 447.5,346.5 C 455.535,350.514 462.868,355.514 469.5,361.5C 462.614,361.397 455.947,362.064 449.5,363.5C 441.688,363.025 434.021,363.692 426.5,365.5C 423.551,364.248 422.551,364.248 423.5,365.5C 422.791,366.404 421.791,366.737 420.5,366.5C 420.5,365.5 420.5,364.5 420.5,363.5C 433.894,363.053 447.228,361.886 460.5,360C 458.444,355.968 455.11,353.968 450.5,354C 451.833,353.333 453.167,352.667 454.5,352C 451.226,351.214 448.892,349.381 447.5,346.5 Z"/></g>
<g><path style="opacity:1" fill="#f59423" d="M 285.5,346.5 C 286.614,360.323 287.281,374.323 287.5,388.5C 274.413,388.165 261.413,387.332 248.5,386C 258.951,371.05 271.284,357.883 285.5,346.5 Z"/></g>
<g><path style="opacity:1" fill="#512b10" d="M 306.5,367.5 C 308.285,374.63 309.618,381.963 310.5,389.5C 309.883,389.389 309.383,389.056 309,388.5C 307.729,381.544 306.896,374.544 306.5,367.5 Z"/></g>
<g><path style="opacity:0.904" fill="#000000" d="M 683.5,387.5 C 689.225,391.046 694.559,395.213 699.5,400C 688.983,410.883 678.816,422.049 669,433.5C 664.771,429.638 660.271,426.138 655.5,423C 664.667,411.004 674,399.171 683.5,387.5 Z"/></g>
<g><path style="opacity:1" fill="#bd7f3a" d="M 463.5,395.5 C 463.721,394.265 464.388,393.265 465.5,392.5C 462.5,392.167 459.5,391.833 456.5,391.5C 448.155,392.085 439.822,392.752 431.5,393.5C 435.264,392.168 439.264,391.335 443.5,391C 452.5,390.333 461.5,390.333 470.5,391C 468.283,392.723 465.95,394.223 463.5,395.5 Z"/></g>
<g><path style="opacity:1" fill="#be813e" d="M 558.5,395.5 C 557.662,395.842 557.328,396.508 557.5,397.5C 553.79,395.769 549.79,394.769 545.5,394.5C 543.97,394.64 542.97,395.307 542.5,396.5C 540.745,395.928 539.078,395.094 537.5,394C 544.75,393.056 551.75,393.556 558.5,395.5 Z"/></g>
<g><path style="opacity:1" fill="#f0952b" d="M 557.5,397.5 C 558.043,397.56 558.376,397.893 558.5,398.5C 555.023,399.167 551.689,399.834 548.5,400.5C 546.228,399.559 544.228,398.226 542.5,396.5C 542.97,395.307 543.97,394.64 545.5,394.5C 549.79,394.769 553.79,395.769 557.5,397.5 Z"/></g>
<g><path style="opacity:1" fill="#f79320" d="M 246.5,397.5 C 260.011,398.705 273.677,398.705 287.5,397.5C 288.213,408.653 289.547,419.653 291.5,430.5C 286.279,431.624 286.279,432.458 291.5,433C 282.84,433.5 274.173,433.666 265.5,433.5C 251.817,433.833 238.15,433.499 224.5,432.5C 228.805,421.081 233.971,410.081 240,399.5C 242.154,398.77 244.321,398.103 246.5,397.5 Z"/></g>
<g><path style="opacity:1" fill="#d88b34" d="M 415.5,397.5 C 404.757,402.235 394.091,407.569 383.5,413.5C 386.319,410.925 389.319,408.592 392.5,406.5C 399.979,403.021 407.646,400.021 415.5,397.5 Z"/></g>
<g><path style="opacity:1" fill="#352015" d="M 383.5,396.5 C 383.076,399.354 382.076,402.021 380.5,404.5C 381.311,405.216 381.978,406.05 382.5,407C 381.453,408.578 381.453,410.078 382.5,411.5C 385.577,409.295 388.91,407.628 392.5,406.5C 389.319,408.592 386.319,410.925 383.5,413.5C 379.542,416.285 375.709,419.285 372,422.5C 371.833,421.833 371.667,421.167 371.5,420.5C 374.489,411.855 378.489,403.855 383.5,396.5 Z"/></g>
<g><path style="opacity:0.945" fill="#000000" d="M 834.5,411.5 C 841.5,411.5 848.5,411.5 855.5,411.5C 855.5,418.167 855.5,424.833 855.5,431.5C 848.5,431.5 841.5,431.5 834.5,431.5C 834.5,424.833 834.5,418.167 834.5,411.5 Z"/></g>
<g><path style="opacity:1" fill="#e99631" d="M 555.5,406.5 C 558.247,406.187 560.914,406.52 563.5,407.5C 574.51,428.874 580.843,451.54 582.5,475.5C 581.262,471.381 580.429,467.047 580,462.5C 579.026,460.122 578.359,460.456 578,463.5C 578.3,454.55 576.967,445.884 574,437.5C 573.667,437.167 573.333,436.833 573,436.5C 572.667,444.5 572.333,452.5 572,460.5C 571.326,463.922 570.16,467.089 568.5,470C 566.892,470.658 565.725,470.158 565,468.5C 564.703,465.086 564.036,461.753 563,458.5C 560.152,455.463 558.985,451.796 559.5,447.5C 560.833,449.833 562.167,452.167 563.5,454.5C 564.508,459.357 566.008,464.024 568,468.5C 571.731,456.333 572.398,444 570,431.5C 568.302,427.672 566.468,424.006 564.5,420.5C 562.315,415.314 559.315,410.647 555.5,406.5 Z"/></g>
<g><path style="opacity:1" fill="#e29132" d="M 288.5,396.5 C 290.015,409.564 292.015,422.564 294.5,435.5C 284.735,434.857 275.068,434.19 265.5,433.5C 274.173,433.666 282.84,433.5 291.5,433C 286.279,432.458 286.279,431.624 291.5,430.5C 289.547,419.653 288.213,408.653 287.5,397.5C 273.677,398.705 260.011,398.705 246.5,397.5C 260.51,397.5 274.51,397.166 288.5,396.5 Z"/></g>
<g><path style="opacity:1" fill="#c27d32" d="M 495.5,420.5 C 495.498,430.12 493.498,439.12 489.5,447.5C 491.008,438.282 493.008,429.282 495.5,420.5 Z"/></g>
<g><path style="opacity:1" fill="#512d0f" d="M 564.5,420.5 C 566.468,424.006 568.302,427.672 570,431.5C 572.398,444 571.731,456.333 568,468.5C 566.008,464.024 564.508,459.357 563.5,454.5C 564.601,455.848 565.601,457.348 566.5,459C 567.449,459.617 568.282,459.451 569,458.5C 570.953,450.173 570.953,441.84 569,433.5C 567.207,429.23 565.707,424.896 564.5,420.5 Z"/></g>
<g><path style="opacity:1" fill="#f69220" d="M 422.5,587.5 C 413.337,587.226 405.004,589.559 397.5,594.5C 393.81,589.815 390.143,585.148 386.5,580.5C 359.737,537.896 338.737,492.563 323.5,444.5C 336.839,445.222 350.172,444.889 363.5,443.5C 384.023,443.902 404.689,443.902 425.5,443.5C 424.271,444.281 422.938,444.781 421.5,445C 423.314,445.92 424.314,447.42 424.5,449.5C 423.435,461.288 424.268,472.955 427,484.5C 427.852,485.571 428.685,486.571 429.5,487.5C 430.751,489.382 431.918,491.382 433,493.5C 434.298,469.587 442.631,448.587 458,430.5C 464.5,423.333 471,416.167 477.5,409C 480.479,410.62 483.812,411.454 487.5,411.5C 473.597,473.256 451.93,531.923 422.5,587.5 Z"/></g>
<g><path style="opacity:0.945" fill="#000000" d="M 656.5,450.5 C 667.893,449.449 678.893,450.949 689.5,455C 698.469,460.317 703.969,468.15 706,478.5C 706.5,503.498 706.667,528.498 706.5,553.5C 699.833,553.5 693.167,553.5 686.5,553.5C 686.662,551.473 686.495,549.473 686,547.5C 681.436,551.916 675.936,554.416 669.5,555C 631.938,557.793 618.438,541.293 629,505.5C 633.687,498.735 640.187,494.901 648.5,494C 661.162,493.5 673.829,493.333 686.5,493.5C 686.974,473.384 677.307,465.551 657.5,470C 653.009,471.163 648.843,472.997 645,475.5C 639.418,472.625 634.251,469.125 629.5,465C 636.869,456.984 645.869,452.151 656.5,450.5 Z M 652.5,510.5 C 663.833,510.5 675.167,510.5 686.5,510.5C 686.932,518.279 686.432,525.946 685,533.5C 672.911,539.855 660.745,540.022 648.5,534C 643.839,527.866 643.339,521.366 647,514.5C 648.812,513.023 650.645,511.69 652.5,510.5 Z"/></g>
<g><path style="opacity:0.938" fill="#000000" d="M 909.5,450.5 C 929.239,447.978 947.239,452.311 963.5,463.5C 959.801,468.902 955.635,473.902 951,478.5C 944.443,474.97 937.609,472.137 930.5,470C 924.5,469.333 918.5,469.333 912.5,470C 903.677,472.446 900.511,477.946 903,486.5C 904.579,488.041 906.413,489.208 908.5,490C 920.886,491.308 933.22,492.974 945.5,495C 954.667,497.5 960.5,503.333 963,512.5C 967.231,538.262 956.398,552.428 930.5,555C 914.172,556.946 898.839,553.946 884.5,546C 881.517,544.016 878.85,541.683 876.5,539C 879.977,533.526 884.144,528.693 889,524.5C 898.743,531.868 909.743,535.868 922,536.5C 927.01,536.677 931.844,535.844 936.5,534C 944.531,528.896 945.864,522.562 940.5,515C 937.352,513.395 934.019,512.395 930.5,512C 917.888,511.589 905.554,509.589 893.5,506C 885.307,500.618 881.307,492.951 881.5,483C 881.907,464.297 891.24,453.464 909.5,450.5 Z"/></g>
<g><path style="opacity:0.942" fill="#000000" d="M 734.5,451.5 C 758.5,451.5 782.5,451.5 806.5,451.5C 806.666,457.842 806.5,464.175 806,470.5C 790.167,491.667 774.333,512.833 758.5,534C 775.497,534.5 792.497,534.667 809.5,534.5C 809.5,540.833 809.5,547.167 809.5,553.5C 783.833,553.5 758.167,553.5 732.5,553.5C 732.334,547.491 732.501,541.491 733,535.5C 748.803,514.063 764.97,492.897 781.5,472C 765.837,471.5 750.17,471.333 734.5,471.5C 734.5,464.833 734.5,458.167 734.5,451.5 Z"/></g>
<g><path style="opacity:0.943" fill="#000000" d="M 834.5,451.5 C 841.5,451.5 848.5,451.5 855.5,451.5C 855.5,485.5 855.5,519.5 855.5,553.5C 848.5,553.5 841.5,553.5 834.5,553.5C 834.5,519.5 834.5,485.5 834.5,451.5 Z"/></g>
<g><path style="opacity:1" fill="#f79320" d="M 296.5,446.5 C 307.15,495.447 324.15,542.113 347.5,586.5C 336.847,587.147 327.514,590.814 319.5,597.5C 318.711,597.783 318.044,598.283 317.5,599C 301.952,599.849 286.619,601.349 271.5,603.5C 265.5,603.833 259.5,604.167 253.5,604.5C 219.118,557.265 208.118,504.931 220.5,447.5C 245.838,447.466 271.172,447.133 296.5,446.5 Z"/></g>
<g><path style="opacity:1" fill="#392009" d="M 429.5,438.5 C 428.491,442.023 428.491,445.523 429.5,449C 427.253,452.993 426.253,457.327 426.5,462C 427.25,467.829 427.916,473.662 428.5,479.5C 427.732,478.737 427.232,477.737 427,476.5C 424.837,464.439 425.004,452.439 427.5,440.5C 428.167,439.833 428.833,439.167 429.5,438.5 Z"/></g>
<g><path style="opacity:1" fill="#dc9137" d="M 427.5,440.5 C 425.004,452.439 424.837,464.439 427,476.5C 427.232,477.737 427.732,478.737 428.5,479.5C 428.833,482.167 429.167,484.833 429.5,487.5C 428.685,486.571 427.852,485.571 427,484.5C 424.268,472.955 423.435,461.288 424.5,449.5C 424.314,447.42 423.314,445.92 421.5,445C 422.938,444.781 424.271,444.281 425.5,443.5C 404.689,443.902 384.023,443.902 363.5,443.5C 384.853,442.891 406.187,441.891 427.5,440.5 Z"/></g>
<g><path style="opacity:1" fill="#f69320" d="M 559.5,447.5 C 558.985,451.796 560.152,455.463 563,458.5C 564.036,461.753 564.703,465.086 565,468.5C 565.725,470.158 566.892,470.658 568.5,470C 570.16,467.089 571.326,463.922 572,460.5C 572.333,452.5 572.667,444.5 573,436.5C 573.333,436.833 573.667,437.167 574,437.5C 576.967,445.884 578.3,454.55 578,463.5C 578.359,460.456 579.026,460.122 580,462.5C 580.429,467.047 581.262,471.381 582.5,475.5C 583.479,478.625 583.813,481.958 583.5,485.5C 486.208,488.51 486.208,491.51 583.5,494.5C 582.52,536.418 569.187,573.751 543.5,606.5C 534.768,606.383 526.102,605.717 517.5,604.5C 508.152,601.803 498.485,600.303 488.5,600C 486.487,598.743 484.321,597.909 482,597.5C 472.524,598.601 463.024,598.768 453.5,598C 452.55,595.09 450.55,593.923 447.5,594.5C 444.045,593.872 442.878,591.872 444,588.5C 462.424,542.44 477.591,495.44 489.5,447.5C 493.498,439.12 495.498,430.12 495.5,420.5C 495.674,418.139 496.007,415.806 496.5,413.5C 500.012,412.945 503.012,413.612 505.5,415.5C 506.314,424.683 507.314,433.85 508.5,443C 508.239,449.841 507.905,456.675 507.5,463.5C 506.968,467.961 505.968,472.294 504.5,476.5C 501.408,483.165 497.408,489.331 492.5,495C 500.299,491.566 506.966,486.399 512.5,479.5C 528.533,460.001 532.866,438.001 525.5,413.5C 525.833,412.833 526.167,412.167 526.5,411.5C 541.684,419.683 552.684,431.683 559.5,447.5 Z"/></g>
<g><path style="opacity:1" fill="#3d2112" d="M 504.5,476.5 C 504.874,479.972 503.874,482.972 501.5,485.5C 502.325,486.386 503.325,486.719 504.5,486.5C 504.5,485.5 504.5,484.5 504.5,483.5C 505.822,483.67 506.989,483.337 508,482.5C 507.954,480.687 508.12,479.021 508.5,477.5C 509.524,478.853 510.857,479.52 512.5,479.5C 506.966,486.399 500.299,491.566 492.5,495C 497.408,489.331 501.408,483.165 504.5,476.5 Z"/></g>
<g><path style="opacity:1" fill="#d18934" d="M 505.5,415.5 C 511.215,431.314 511.882,447.314 507.5,463.5C 507.905,456.675 508.239,449.841 508.5,443C 507.314,433.85 506.314,424.683 505.5,415.5 Z"/></g>
<g><path style="opacity:1" fill="#462711" d="M 386.5,580.5 C 390.143,585.148 393.81,589.815 397.5,594.5C 405.004,589.559 413.337,587.226 422.5,587.5C 413.818,588.652 405.485,591.319 397.5,595.5C 395.813,595.24 394.313,594.573 393,593.5C 390.843,589.186 388.676,584.853 386.5,580.5 Z"/></g>
<g><path style="opacity:1" fill="#dd8b32" d="M 447.5,594.5 C 450.55,593.923 452.55,595.09 453.5,598C 463.024,598.768 472.524,598.601 482,597.5C 484.321,597.909 486.487,598.743 488.5,600C 498.485,600.303 508.152,601.803 517.5,604.5C 515.5,604.5 513.5,604.5 511.5,604.5C 491.877,602.344 472.211,600.51 452.5,599C 450.76,597.483 449.094,595.983 447.5,594.5 Z"/></g>
<g><path style="opacity:1" fill="#43230d" d="M 319.5,597.5 C 319.5,598.5 319.5,599.5 319.5,600.5C 303.524,601.861 287.524,602.861 271.5,603.5C 286.619,601.349 301.952,599.849 317.5,599C 318.044,598.283 318.711,597.783 319.5,597.5 Z"/></g>
<g><path style="opacity:1" fill="#45250b" d="M 511.5,604.5 C 513.5,604.5 515.5,604.5 517.5,604.5C 526.102,605.717 534.768,606.383 543.5,606.5C 543.5,606.833 543.5,607.167 543.5,607.5C 532.591,607.509 521.924,606.509 511.5,604.5 Z"/></g>
</svg>
